<?xml version="1.0" standalone="no"?>
<!DOCTYPE svg PUBLIC "-//W3C//DTD SVG 20010904//EN"
 "http://www.w3.org/TR/2001/REC-SVG-20010904/DTD/svg10.dtd">
<svg version="1.0" xmlns="http://www.w3.org/2000/svg"
 width="204.000000pt" height="204.000000pt" viewBox="0 0 204.000000 204.000000"
 preserveAspectRatio="xMidYMid meet">

<g transform="translate(0.000000,204.000000) scale(0.100000,-0.100000)"
fill="#000000" stroke="none">
<path d="M338 1073 c-1 -456 -2 -859 -3 -898 -1 -38 0 -73 3 -78 2 -4 15 1 30
11 15 11 99 63 187 117 88 53 170 104 183 111 21 14 22 20 22 159 0 80 -2 145
-5 145 -2 0 -39 -20 -81 -45 -42 -25 -78 -44 -80 -42 -3 2 -3 204 -2 450 l3
445 185 -115 c574 -359 537 -334 514 -350 -21 -15 -148 -95 -267 -168 l-77
-47 0 -144 c0 -79 2 -144 4 -144 2 0 68 40 147 88 580 356 690 425 682 433 -8
8 -193 124 -728 458 -126 79 -264 165 -305 191 -41 26 -111 69 -155 97 -44 27
-117 73 -162 102 -45 28 -84 51 -87 51 -4 0 -7 -372 -8 -827z m106 728 c34
-21 135 -85 226 -141 337 -210 807 -504 880 -550 41 -26 99 -62 128 -80 l53
-33 -33 -22 c-18 -12 -87 -55 -153 -95 -66 -40 -165 -101 -220 -135 -245 -151
-335 -205 -340 -205 -3 0 -5 47 -5 104 l0 104 173 106 c94 58 185 114 200 124
l28 19 -158 98 c-87 54 -198 124 -248 155 -236 150 -366 230 -394 245 l-31 16
0 -511 c0 -280 3 -510 6 -510 4 0 40 20 81 45 40 25 76 45 78 45 3 0 5 -49 5
-108 l0 -108 -122 -74 c-66 -41 -145 -90 -175 -107 l-53 -32 0 844 c0 465 3
845 7 845 4 0 34 -17 67 -39z"/>
</g>
</svg>
