<?xml version="1.0" standalone="no"?>
<!DOCTYPE svg PUBLIC "-//W3C//DTD SVG 20010904//EN"
 "http://www.w3.org/TR/2001/REC-SVG-20010904/DTD/svg10.dtd">
<svg version="1.0" xmlns="http://www.w3.org/2000/svg"
 width="309.000000pt" height="343.000000pt" viewBox="0 0 309.000000 343.000000"
 preserveAspectRatio="xMidYMid meet">
<g transform="translate(0.000000,343.000000) scale(0.100000,-0.100000)"
fill="#000000" stroke="none">
<path d="M460 1760 c0 -965 3 -1470 10 -1470 5 0 30 15 54 32 25 18 81 56 127
83 45 28 123 76 173 107 89 56 187 115 249 151 18 10 42 28 54 40 22 21 22 29
24 255 0 128 -1 235 -4 238 -2 2 -53 -24 -113 -60 -60 -35 -119 -67 -131 -70
l-22 -7 -1 710 c0 391 2 711 4 711 8 0 127 -70 186 -110 30 -20 107 -67 170
-105 63 -38 166 -102 228 -142 109 -71 113 -73 135 -57 l22 16 -28 -6 c-15 -4
-27 -3 -26 1 3 20 -2 27 -11 13 -7 -12 -9 -10 -7 8 1 24 8 27 24 11 6 -6 32
-21 58 -33 46 -23 47 -23 20 -30 -15 -4 -33 -2 -40 4 -8 6 -16 7 -19 2 -3 -5
20 -25 52 -44 31 -19 109 -67 173 -106 103 -64 119 -71 146 -63 32 9 65 -1 44
-13 -6 -4 -11 -2 -11 5 0 7 -3 10 -6 6 -12 -12 7 -28 20 -17 10 7 20 5 39 -10
14 -11 31 -20 39 -20 10 0 9 -3 -2 -10 -8 -5 -16 -18 -16 -30 -3 -37 -4 -40
-18 -40 -19 0 -30 31 -14 42 10 6 2 18 -27 43 -22 19 -47 35 -55 34 -10 0 -7
-6 9 -17 14 -9 34 -25 45 -34 l21 -17 -25 -18 c-23 -16 -139 -89 -437 -275
l-113 -69 0 -77 c-1 -42 -3 -152 -6 -245 -5 -143 -4 -167 9 -167 8 0 100 53
203 118 104 65 211 130 237 146 27 15 46 30 44 33 -3 2 -14 0 -25 -6 -28 -15
-65 -14 -60 2 3 6 13 13 24 14 18 3 18 2 -1 -6 -16 -8 -17 -10 -3 -10 28 -1
51 11 38 19 -21 13 0 30 28 25 21 -4 22 -3 8 3 -24 11 -6 25 21 16 15 -5 15
-4 3 5 -9 7 -10 11 -3 11 6 0 15 -5 18 -10 4 -6 11 -8 16 -5 5 4 9 4 9 1 0
-11 -65 -36 -82 -30 -24 7 -23 -3 2 -16 21 -11 55 9 510 295 80 50 198 124
263 164 64 40 117 76 117 81 0 8 -221 150 -233 150 -2 0 -12 -11 -21 -24 -15
-24 -15 -25 60 -71 41 -26 73 -52 71 -58 -2 -6 -106 -75 -233 -154 -172 -107
-228 -147 -226 -160 2 -14 1 -15 -6 -5 -9 14 -89 -31 -349 -196 -142 -90 -360
-222 -367 -222 -3 0 -6 76 -6 169 l0 168 38 25 c39 27 287 182 361 227 146 88
226 142 226 152 0 6 -139 99 -310 206 -170 106 -393 246 -495 310 -102 64
-239 150 -305 191 -66 41 -140 88 -164 104 -26 17 -47 26 -53 20 -11 -11 -6
-1612 5 -1629 5 -8 43 10 127 63 66 42 128 74 137 72 13 -2 18 -12 17 -36 0
-17 -1 -97 -2 -177 l-2 -145 -60 -37 c-33 -21 -131 -82 -217 -136 -87 -54
-176 -112 -198 -128 -34 -25 -98 -59 -111 -59 -2 0 -5 621 -6 1381 l-3 1381
28 -6 c15 -3 51 -23 80 -44 28 -21 95 -64 147 -94 52 -30 131 -80 175 -111 44
-31 149 -99 233 -152 114 -71 156 -94 168 -87 13 7 10 10 -15 15 -18 4 -31 13
-31 22 0 17 6 18 35 4 19 -9 18 -9 -3 -5 -12 2 -20 0 -16 -5 3 -5 14 -9 24 -9
10 0 26 -7 34 -16 11 -10 21 -12 32 -6 12 7 0 18 -58 53 -40 24 -76 45 -79 47
-4 2 -14 -5 -24 -14 -14 -15 -18 -15 -26 -3 -4 8 -12 14 -16 15 -4 0 -16 4
-26 9 -15 6 -16 10 -5 16 20 13 40 11 32 -3 -4 -7 -4 -10 1 -6 4 4 13 1 19 -7
7 -9 16 -12 25 -6 11 7 9 12 -10 22 -13 7 -61 36 -106 66 -45 29 -93 58 -105
63 -13 6 -50 28 -83 49 -33 22 -130 81 -215 132 -85 52 -173 106 -194 121 -21
16 -45 28 -53 28 -11 0 -13 -243 -13 -1470z m66 1412 c1 -7 0 -8 -3 -2 -6 14
-24 13 -20 -1 1 -6 -4 -14 -11 -16 -7 -3 -11 1 -10 9 6 27 39 35 44 10z m414
-252 c8 -5 11 -10 5 -10 -5 0 -17 5 -25 10 -8 5 -10 10 -5 10 6 0 17 -5 25
-10z m120 -72 c0 -11 5 -15 15 -12 8 3 26 -6 40 -20 15 -15 30 -24 35 -21 5 3
11 1 14 -4 3 -5 -1 -12 -10 -15 -17 -6 -124 57 -124 74 0 5 -7 7 -16 3 -14 -5
-14 -3 -3 15 10 16 16 18 31 9 10 -7 18 -20 18 -29z m205 -128 c4 -6 11 -8 16
-5 5 4 6 -2 2 -11 -4 -11 -8 -13 -11 -6 -2 7 -8 10 -13 6 -12 -7 -31 5 -24 17
8 12 22 12 30 -1z m-355 -207 c0 -7 5 -13 11 -13 5 0 7 4 4 10 -3 6 1 7 10 3
10 -3 13 -8 6 -12 -5 -4 -6 -12 -2 -20 6 -10 10 -9 15 4 6 15 10 14 40 -9 19
-14 37 -26 41 -26 15 0 64 -44 58 -53 -3 -6 -1 -7 6 -3 10 7 55 -17 170 -89
95 -61 131 -88 125 -97 -4 -6 1 -8 14 -4 14 5 25 1 35 -14 7 -11 17 -17 21
-13 4 4 10 3 14 -3 4 -5 19 -17 35 -27 22 -14 38 -47 23 -47 -15 0 -77 45 -68
48 7 2 10 8 7 12 -3 5 -12 7 -20 4 -7 -3 -22 -1 -32 5 -10 6 -12 11 -5 11 6 0
12 5 12 11 0 6 -7 8 -16 5 -8 -3 -33 3 -54 14 -42 21 -59 40 -38 40 9 0 9 3
-2 10 -20 13 -33 13 -25 0 10 -16 -7 -11 -47 14 -27 16 -35 25 -27 33 8 8 3
16 -20 27 -38 20 -42 12 -3 -8 17 -10 21 -15 11 -16 -9 0 -22 7 -29 15 -7 8
-18 15 -24 15 -6 0 -18 5 -26 10 -12 8 -13 12 -2 19 11 7 10 9 -3 14 -9 4 -13
3 -10 -3 8 -13 -1 -13 -26 1 -11 5 -17 14 -14 19 3 5 1 11 -5 15 -5 3 -10 1
-10 -4 0 -6 -4 -11 -9 -11 -5 0 -7 9 -4 20 3 12 0 20 -6 20 -7 0 -10 -4 -7 -9
3 -4 -6 -6 -20 -3 -13 2 -29 13 -35 24 -5 10 -14 16 -20 13 -5 -4 -22 3 -38
14 -27 20 -31 20 -46 5 -14 -15 -15 -83 -13 -714 2 -518 6 -701 15 -711 9 -12
6 -18 -18 -31 l-29 -17 0 784 0 784 40 -26 c22 -15 40 -33 40 -40z m798 -488
c30 -13 34 -18 22 -26 -12 -8 -10 -9 8 -4 26 7 82 -29 60 -39 -7 -3 -4 -5 7
-4 31 2 54 -12 48 -28 -4 -12 -7 -12 -18 2 -7 10 -19 15 -29 11 -9 -4 -16 -2
-16 3 0 6 -8 10 -17 11 -15 0 -15 2 2 9 18 8 18 9 2 9 -12 1 -16 5 -11 14 6 9
4 9 -8 -1 -14 -11 -23 -9 -62 16 -26 15 -43 31 -40 35 10 9 9 9 52 -8z m187
-115 c14 -5 23 -14 20 -20 -3 -5 2 -10 13 -10 10 0 19 -7 19 -15 0 -19 -5 -19
-24 0 -8 8 -19 13 -24 10 -5 -4 -9 -1 -9 4 0 6 -8 11 -17 12 -13 0 -14 2 -4 6
11 5 11 7 0 14 -19 12 -6 11 26 -1z m708 -37 c-5 -15 -3 -16 8 -5 7 6 18 12
24 12 5 0 2 -7 -8 -15 -24 -18 -53 -9 -36 11 15 19 20 18 12 -3z m43 -22 c-3
-5 9 -12 27 -15 74 -14 125 -76 76 -91 -11 -4 -18 -9 -15 -12 10 -10 -16 -33
-38 -34 -12 0 -15 -3 -8 -6 9 -3 3 -12 -19 -25 -25 -15 -34 -17 -40 -7 -8 14
16 38 39 39 7 0 11 4 7 9 -3 5 3 12 14 16 10 3 27 15 37 26 17 19 17 20 -4 26
-12 3 -22 9 -22 14 0 5 -7 9 -15 9 -9 0 -12 6 -8 17 5 12 2 15 -9 11 -19 -8
-43 7 -34 21 4 6 9 11 12 11 3 0 3 -4 0 -9z m154 -81 c11 -7 11 -10 2 -10 -7
0 -10 -4 -7 -10 3 -5 2 -10 -3 -10 -5 0 -12 9 -15 20 -6 22 0 25 23 10z m-670
-10 c0 -5 -7 -6 -17 -3 -11 4 -14 3 -9 -5 4 -7 1 -12 -8 -12 -10 0 -13 6 -10
15 7 16 44 21 44 5z m640 -24 c0 -3 -4 -8 -10 -11 -5 -3 -10 -1 -10 4 0 6 5
11 10 11 6 0 10 -2 10 -4z m-743 -27 c-2 -11 -13 -26 -25 -32 -12 -7 -48 -29
-82 -49 -33 -21 -67 -35 -75 -32 -8 3 -24 -1 -37 -10 -25 -18 -17 -22 12 -6
16 8 18 8 14 -5 -7 -16 -31 -20 -52 -7 -9 6 -1 14 25 28 21 10 44 25 51 32 7
6 19 12 27 12 7 0 15 7 19 15 3 8 12 15 19 15 8 0 20 7 27 15 7 9 16 12 19 7
3 -4 17 -5 31 -1 16 4 19 7 8 8 -21 1 -24 17 -5 24 23 10 27 7 24 -14z m588
-49 c3 -5 -1 -10 -10 -10 -9 0 -13 5 -10 10 3 6 8 10 10 10 2 0 7 -4 10 -10z
m-20 -30 c3 -6 -1 -7 -9 -4 -18 7 -21 14 -7 14 6 0 13 -4 16 -10z m-22 -21
c-16 -14 -71 -20 -78 -9 -5 9 -1 10 15 5 13 -4 20 -3 17 2 -3 5 7 9 24 9 16 0
26 -3 22 -7z m-112 -36 c-11 -5 -11 -7 0 -14 11 -7 9 -9 -6 -9 -13 0 -16 -3
-8 -8 8 -5 2 -13 -19 -25 -27 -15 -30 -15 -24 -1 3 8 6 20 6 25 0 5 7 9 16 9
8 0 13 4 10 9 -6 9 10 19 29 19 6 0 4 -2 -4 -5z m-676 -34 c-4 -5 -12 -9 -18
-9 -8 0 -8 3 1 9 11 7 11 9 -2 14 -9 4 -15 3 -15 -1 4 -22 -3 -32 -20 -32 -11
0 -27 -3 -36 -6 -13 -6 -14 -9 -3 -16 10 -8 10 -9 -1 -6 -38 11 -4 44 39 38 8
-1 12 1 8 6 -4 4 -3 13 3 20 13 16 54 0 44 -17z m606 -18 c-7 -5 -13 -12 -13
-17 -1 -19 -10 -34 -19 -29 -4 3 -17 -3 -29 -15 -11 -11 -23 -20 -26 -20 -3 0
-36 -20 -73 -43 -36 -24 -80 -47 -96 -51 -23 -6 -26 -9 -14 -18 10 -7 8 -8
-10 -4 -14 3 -31 0 -38 -6 -8 -6 -16 -8 -20 -4 -10 9 -1 15 56 35 28 10 54 21
58 25 4 4 -1 4 -12 0 -11 -4 0 8 23 25 24 18 46 31 48 28 3 -2 -7 -12 -22 -21
-14 -10 -23 -20 -21 -23 9 -8 107 63 99 72 -4 4 1 5 11 2 9 -4 17 -2 17 2 0 5
-5 11 -12 13 -7 3 -5 7 6 11 10 4 15 3 11 -3 -8 -13 5 -13 25 0 13 8 13 10 0
10 -8 0 1 11 20 24 19 13 37 22 40 19 2 -2 -1 -8 -9 -12z m-752 -41 c-13 -10
-19 -19 -12 -20 6 0 15 5 18 10 3 6 14 10 23 10 11 0 4 -8 -17 -21 -18 -11
-40 -18 -48 -14 -11 4 -13 1 -9 -10 4 -12 -3 -19 -24 -27 -17 -5 -30 -14 -30
-19 0 -5 -7 -9 -15 -9 -11 0 -15 -13 -16 -47 -2 -47 -2 -47 -9 -13 -6 30 -8
25 -9 -30 -2 -78 -1 -272 2 -319 1 -20 -3 -36 -10 -38 -10 -4 -12 49 -11 224
l1 228 28 23 c16 13 29 19 29 13 0 -6 5 -11 10 -11 6 0 10 6 10 14 0 8 8 17
18 20 9 3 30 17 46 31 16 14 33 25 39 25 5 0 -1 -9 -14 -20z m441 -181 c-8 -5
-23 -7 -32 -5 -10 2 -18 0 -18 -5 0 -5 -7 -9 -16 -9 -14 0 -14 3 -3 16 8 9 21
13 35 10 13 -4 26 -1 29 5 4 6 10 8 13 4 4 -3 0 -10 -8 -16z m-245 -126 c-16
-13 -17 -14 -2 -9 50 18 52 18 30 2 -13 -9 -31 -16 -40 -14 -10 2 -17 -2 -16
-8 1 -7 -6 -10 -17 -7 -12 3 -23 -3 -32 -16 -15 -25 -28 -27 -28 -6 0 8 6 15
13 15 6 1 30 14 52 30 42 30 75 42 40 13z m-718 -30 c-4 -3 -2 -12 4 -20 13
-14 9 -16 -15 -7 -13 5 -14 9 -5 20 6 8 14 14 17 14 3 0 2 -3 -1 -7z m405
-133 c6 0 8 -9 5 -21 -4 -16 -2 -19 11 -15 13 5 12 3 -2 -9 -11 -8 -22 -15
-26 -15 -3 0 -5 35 -6 78 0 42 1 56 3 30 2 -27 9 -48 15 -48z m191 93 c-20 -7
-15 -23 5 -16 9 3 5 -4 -10 -16 -19 -15 -34 -20 -51 -16 -17 5 -26 2 -31 -10
-5 -13 -2 -16 11 -11 14 6 15 4 6 -5 -6 -6 -16 -8 -22 -5 -17 11 5 43 33 48
16 3 23 1 19 -5 -4 -6 -1 -7 6 -3 7 5 10 14 7 21 -5 13 8 23 29 23 6 0 4 -2
-2 -5z m-113 -67 c0 -3 -4 -8 -10 -11 -5 -3 -10 -1 -10 4 0 6 5 11 10 11 6 0
10 -2 10 -4z m-15 -29 c17 -13 17 -14 -2 -19 -25 -7 -48 6 -39 21 9 14 18 14
41 -2z m-1070 -647 c3 -5 2 -10 -4 -10 -5 0 -13 5 -16 10 -3 6 -2 10 4 10 5 0
13 -4 16 -10z"/>
<path d="M1080 2816 c0 -2 9 -6 20 -9 11 -3 18 -1 14 4 -5 9 -34 13 -34 5z"/>
<path d="M860 2522 c0 -4 9 -8 19 -8 11 0 17 4 15 8 -3 4 -12 8 -20 8 -8 0
-14 -4 -14 -8z"/>
<path d="M993 2455 c0 -8 4 -15 9 -15 4 0 8 4 8 9 0 6 -4 12 -8 15 -5 3 -9 -1
-9 -9z"/>
<path d="M841 2434 c0 -11 3 -14 6 -6 3 7 2 16 -1 19 -3 4 -6 -2 -5 -13z"/>
<path d="M842 2330 c0 -14 2 -19 5 -12 2 6 2 18 0 25 -3 6 -5 1 -5 -13z"/>
<path d="M1265 2280 c-3 -5 1 -10 9 -10 9 0 16 5 16 10 0 6 -4 10 -9 10 -6 0
-13 -4 -16 -10z"/>
<path d="M1340 2233 c8 -3 24 -10 35 -15 20 -9 20 -9 1 6 -11 9 -27 16 -35 15
-14 0 -14 -1 -1 -6z"/>
<path d="M841 2194 c0 -11 3 -14 6 -6 3 7 2 16 -1 19 -3 4 -6 -2 -5 -13z"/>
<path d="M1485 2140 c3 -5 14 -10 23 -10 15 0 15 2 2 10 -20 13 -33 13 -25 0z"/>
<path d="M844 1565 c0 -148 2 -211 3 -138 2 72 2 194 0 270 -1 76 -3 17 -3
-132z"/>
<path d="M1695 2010 c3 -5 8 -10 11 -10 2 0 4 5 4 10 0 6 -5 10 -11 10 -5 0
-7 -4 -4 -10z"/>
<path d="M2710 1799 c0 -5 5 -7 10 -4 6 3 10 8 10 11 0 2 -4 4 -10 4 -5 0 -10
-5 -10 -11z"/>
<path d="M2700 1720 c-9 -6 -10 -10 -3 -10 6 0 15 5 18 10 8 12 4 12 -15 0z"/>
<path d="M2646 1674 c-6 -15 -4 -15 11 -3 10 7 20 15 22 16 2 2 -3 3 -11 3 -9
0 -19 -7 -22 -16z"/>
<path d="M1950 1670 c0 -5 5 -10 10 -10 6 0 10 5 10 10 0 6 -4 10 -10 10 -5 0
-10 -4 -10 -10z"/>
<path d="M1910 1645 c-7 -8 -9 -15 -6 -15 4 0 14 7 22 15 9 8 11 15 6 15 -5 0
-15 -7 -22 -15z"/>
<path d="M1860 1615 c-7 -8 -8 -15 -2 -15 5 0 15 7 22 15 7 8 8 15 2 15 -5 0
-15 -7 -22 -15z"/>
<path d="M2355 1500 c-3 -5 -1 -10 4 -10 6 0 11 5 11 10 0 6 -2 10 -4 10 -3 0
-8 -4 -11 -10z"/>
<path d="M1515 1400 c3 -5 8 -10 11 -10 2 0 4 5 4 10 0 6 -5 10 -11 10 -5 0
-7 -4 -4 -10z"/>
<path d="M1342 2641 c-14 -8 43 -48 223 -156 44 -27 152 -94 240 -151 88 -56
221 -140 297 -186 75 -46 189 -116 253 -156 64 -40 122 -69 128 -66 7 4 9 4 5
-1 -10 -11 59 -58 72 -50 6 4 8 11 4 16 -3 5 -9 7 -13 5 -4 -3 -8 1 -8 9 0 18
14 20 20 3 3 -10 8 -10 17 -2 9 9 -3 20 -49 48 -33 21 -65 34 -71 31 -6 -4 -9
-1 -8 5 2 6 -40 38 -92 70 -52 33 -114 71 -137 85 -40 25 -63 26 -63 4 0 -6
10 -8 23 -4 17 5 19 4 7 -4 -12 -9 -13 -11 -1 -11 8 0 12 -2 9 -5 -3 -3 -17 0
-32 6 -24 11 -25 14 -10 30 18 20 41 3 -218 162 -106 66 -162 95 -175 91 -13
-4 -14 -3 -5 4 10 7 6 14 -20 29 -18 11 -97 61 -176 112 -103 66 -147 89 -158
83 -14 -8 -14 -10 0 -21 9 -7 24 -10 33 -7 10 4 14 4 10 0 -10 -11 23 -44 45
-44 10 0 18 -4 18 -10 0 -5 5 -10 11 -10 5 0 8 4 5 9 -3 4 10 1 28 -8 24 -12
29 -18 18 -22 -12 -4 -11 -7 7 -12 13 -3 20 -10 17 -15 -9 -15 20 -22 34 -9
10 10 12 8 7 -6 -6 -15 -3 -17 16 -12 15 4 18 3 8 -3 -14 -10 2 -28 17 -18 5
3 21 -4 38 -16 l29 -20 -31 6 c-35 6 -150 71 -137 78 4 3 3 3 -4 2 -6 -2 -13
0 -15 4 -2 4 -25 18 -51 32 -26 14 -59 35 -74 47 -14 13 -30 23 -35 23 -6 0
-17 9 -26 20 -11 13 -22 17 -30 11z m138 -41 c13 -8 13 -10 -2 -10 -9 0 -20 5
-23 10 -8 13 5 13 25 0z m265 -200 c3 -6 -1 -7 -9 -4 -18 7 -21 14 -7 14 6 0
13 -4 16 -10z m61 -19 c-3 -5 9 -12 28 -15 23 -4 33 -12 32 -23 0 -9 5 -18 13
-21 8 -3 11 0 7 7 -5 7 -1 9 9 4 9 -3 12 -9 7 -12 -6 -4 -4 -11 4 -19 13 -12
18 -8 15 11 -1 4 8 2 19 -5 18 -12 19 -13 2 -20 -13 -5 -10 -7 11 -7 35 -1 70
-19 62 -32 -4 -5 5 -9 19 -9 14 0 26 -5 26 -11 0 -5 -5 -7 -12 -3 -7 5 -8 3
-4 -5 5 -7 14 -10 20 -8 7 3 19 2 26 -3 9 -6 7 -10 -9 -15 -15 -4 -29 -1 -40
9 -10 9 -21 16 -25 16 -4 0 -19 8 -34 19 -72 49 -149 98 -164 104 -10 3 -18
11 -18 17 0 5 -8 10 -17 10 -15 0 -16 2 -3 10 19 12 33 13 26 1z m304 -200 c0
-5 10 -7 23 -4 20 4 21 3 3 -7 -14 -10 -21 -9 -34 4 -11 10 -12 16 -4 16 7 0
12 -4 12 -9z m144 -72 c3 -3 -6 -6 -19 -7 -14 -1 -25 3 -25 8 0 10 35 9 44 -1z
m74 -41 c17 -11 30 -24 26 -29 -3 -5 5 -9 18 -9 20 -1 21 -2 6 -10 -12 -8 -26
-5 -50 10 l-33 21 30 -7 30 -6 -33 21 c-18 12 -38 21 -45 21 -8 0 -7 -4 3 -10
8 -5 10 -10 4 -10 -5 0 -19 6 -29 14 -18 13 -17 14 11 14 16 0 44 -9 62 -20z
m68 -67 c-3 -5 6 -12 20 -15 15 -4 24 -9 22 -12 -8 -8 -58 15 -58 26 0 5 5 10
11 10 5 0 8 -4 5 -9z m99 -41 c3 -5 -1 -10 -10 -10 -9 0 -13 5 -10 10 3 6 8
10 10 10 2 0 7 -4 10 -10z m22 -17 c-4 -3 -2 -12 4 -20 7 -8 8 -13 1 -13 -12
0 -23 26 -15 34 4 3 9 6 11 6 3 0 2 -3 -1 -7z"/>
<path d="M1818 2353 c7 -3 16 -2 19 1 4 3 -2 6 -13 5 -11 0 -14 -3 -6 -6z"/>
<path d="M1970 2263 c8 -4 21 -13 28 -22 10 -13 12 -14 10 -1 -4 19 -18 30
-38 29 -13 -1 -13 -1 0 -6z"/>
<path d="M1530 2540 c0 -6 7 -10 15 -10 8 0 15 2 15 4 0 2 -7 6 -15 10 -8 3
-15 1 -15 -4z"/>
<path d="M1625 2060 c3 -5 11 -10 16 -10 6 0 7 5 4 10 -3 6 -11 10 -16 10 -6
0 -7 -4 -4 -10z"/>
<path d="M2030 1806 c0 -2 7 -9 15 -16 9 -7 15 -8 15 -2 0 5 -7 12 -15 16 -8
3 -15 4 -15 2z"/>
</g>
</svg>
